# xmcd CD database file generated by Grip 3.3.1
# 
# Track frame offsets:
#       150
#       13849
#       27316
#       40727
#       55286
#       69643
#       84325
#       97470
#       111030
#       124685
#       139727
#       152533
#       166597
#       181139
#       195805
#       209945
#       223118
#       235791
#       247056
#       260118
#       271776
#       285236
#       298829
#       311471
# 
# Disc length: 4343 seconds
# 
# Revision: 2
# Processed by: cddbd v1.5.2PL0 Copyright (c) Steve Scherf et al.
# Submitted via: Grip 3.3.1
# 
DISCID=5f10f518
DTITLE=Sidney Bechet - Wild Cat Blues [CD1]
DYEAR=2001
DGENRE=Jazz
TTITLE0=Clarence William's Blue Five - Wild Cat Blues
TTITLE1=Clarence William's Blue Five - Kansas City Man Blues
TTITLE2=Clarence William's Blue Five - House Rent Blues (The Stomp)
TTITLE3=Clarence William's Blue Five - Texas Moaner Blues
TTITLE4=Clarence William's Blue Five - Mandy, Make Up Your Mind
TTITLE5=Clarence William's Blue Five - I'm A Little Blackbird Looking For
TTITLE5=A Bluebird
TTITLE6=Red Union Jazz Babies - Nobody Knows The Way I Feel 'Dis Morning
TTITLE7=Red Union Jazz Babies - Early Every Mornin'
TTITLE8=Red Union Jazz Babies - Cake Walking Babies From Home
TTITLE9=Clarence William's Blue Five - Pickin' On Your Baby
TTITLE10=New Orleans Feetwarmers - Sweetie Dear
TTITLE11=New Orleans Feetwarmers - I Want You Tonight
TTITLE12=New Orleans Feetwarmers - I Found A New Baby
TTITLE13=New Orleans Feetwarmers - Lay Your Racket
TTITLE14=New Orleans Feetwarmers - Shag
TTITLE15=New Orleans Feetwarmers - Maple Leaf Rag
TTITLE16=Noble Sissle And His International Orchestra - Polka Dot Rag
TTITLE17=Noble Sissle And His Orchestra - Tain't A Fit Night Out For Man O
TTITLE17=r Beast
TTITLE18=Noble Sissle And His Orchestra - I'm Just Wild About Harry
TTITLE19=Noble Sissle And His Orchestra - Dear Old Southland
TTITLE20=Noble Sissle's Swingsters - Okey-Doke
TTITLE21=Noble Sissle's Swingsters - Characteristic Blues
TTITLE22=Noble Sissle's Swingsters - Blackstick
TTITLE23=Noble Sissle's Swingsters - Southern Sunset
EXTD=
EXTT0=
EXTT1=
EXTT2=
EXTT3=
EXTT4=
EXTT5=
EXTT6=
EXTT7=
EXTT8=
EXTT9=
EXTT10=
EXTT11=
EXTT12=
EXTT13=
EXTT14=
EXTT15=
EXTT16=
EXTT17=
EXTT18=
EXTT19=
EXTT20=
EXTT21=
EXTT22=
EXTT23=
PLAYORDER=
